<svg 
class="icon icon-search"
width="20" height="20" viewBox="0 0 20 20" 
fill="currentColor" xmlns="http://www.w3.org/2000/svg">
<g clip-path="url(#clip0_10009_15559)">
<path d="M14.3705 12.86L20.0065 18.497L18.5925 19.911L12.9595 14.279C11.6188 15.3205 9.96908 15.885 8.27145 15.883C4.01545 15.883 0.564453 12.4 0.564453 8.103C0.564453 3.806 4.01445 0.322998 8.27145 0.322998C12.5285 0.322998 15.9785 3.806 15.9785 8.103C15.9785 9.895 15.3785 11.545 14.3705 12.861V12.86ZM8.27045 14.084C11.5295 14.084 14.1775 11.411 14.1775 8.104C14.1775 4.798 11.5295 2.124 8.27045 2.124C5.01245 2.124 2.36345 4.798 2.36345 8.104C2.36345 11.411 5.01245 14.084 8.27045 14.084Z" fill="currentColor"/>
</g>
<defs>
<clipPath id="clip0_10009_15559">
<rect width="20" height="20"/>
</clipPath>
</defs>
</svg>

