<svg width="24" height="25" viewBox="0 0 24 25" fill="none" xmlns="http://www.w3.org/2000/svg">
<mask id="path-1-inside-1_5940_21300" fill="white">
<path d="M12 23.0879C11.8786 23.0879 11.7572 23.0562 11.6485 22.9926C11.5303 22.9237 8.7239 21.2751 5.87719 18.7911C4.18998 17.3189 2.84317 15.8588 1.87427 14.4512C0.620463 12.6298 -0.0100507 10.8779 0.000121129 9.24399C0.0120273 7.34276 0.685103 5.55478 1.89551 4.20936C3.12634 2.84127 4.76893 2.08789 6.52079 2.08789C8.76595 2.08789 10.8186 3.36028 12 5.3759C13.1814 3.36033 15.2341 2.08789 17.4793 2.08789C19.1343 2.08789 20.7134 2.76767 21.9258 4.00202C23.2563 5.3566 24.0122 7.27054 23.9999 9.25301C23.9896 10.8841 23.3473 12.6333 22.0907 14.4522C21.1188 15.859 19.7739 17.3186 18.0933 18.7903C15.257 21.2741 12.4707 22.9226 12.3535 22.9915C12.2442 23.0557 12.122 23.0879 12 23.0879Z"/>
</mask>
<path d="M12 23.0879C11.8786 23.0879 11.7572 23.0562 11.6485 22.9926C11.5303 22.9237 8.7239 21.2751 5.87719 18.7911C4.18998 17.3189 2.84317 15.8588 1.87427 14.4512C0.620463 12.6298 -0.0100507 10.8779 0.000121129 9.24399C0.0120273 7.34276 0.685103 5.55478 1.89551 4.20936C3.12634 2.84127 4.76893 2.08789 6.52079 2.08789C8.76595 2.08789 10.8186 3.36028 12 5.3759C13.1814 3.36033 15.2341 2.08789 17.4793 2.08789C19.1343 2.08789 20.7134 2.76767 21.9258 4.00202C23.2563 5.3566 24.0122 7.27054 23.9999 9.25301C23.9896 10.8841 23.3473 12.6333 22.0907 14.4522C21.1188 15.859 19.7739 17.3186 18.0933 18.7903C15.257 21.2741 12.4707 22.9226 12.3535 22.9915C12.2442 23.0557 12.122 23.0879 12 23.0879Z" stroke="white" stroke-width="3" stroke-linejoin="round" mask="url(#path-1-inside-1_5940_21300)"/>
</svg>
