<svg width="24" height="24" viewBox="0 0 24 24" fill="none" xmlns="http://www.w3.org/2000/svg">
<rect width="24" height="24" rx="12" fill="#1F727C"/>
<g clip-path="url(#clip0_10009_16783)">
<g clip-path="url(#clip1_10009_16783)">
<path d="M12.0001 16.2966C9.63512 16.2966 7.68262 14.3748 7.68262 11.9863C7.68262 9.59776 9.60762 7.67596 12.0001 7.67596C14.3926 7.67596 16.3176 9.59776 16.3176 11.9863C16.3176 14.3748 14.3926 16.2966 12.0001 16.2966ZM12.0001 9.32321C10.5426 9.32321 9.33262 10.5037 9.33262 11.9863C9.33262 13.4688 10.5151 14.6493 12.0001 14.6493C13.4851 14.6493 14.6676 13.4688 14.6676 11.9863C14.6676 10.5037 13.4576 9.32321 12.0001 9.32321Z" fill="white"/>
<path d="M16.51 20.25H7.5175C5.4275 20.25 3.75 18.5478 3.75 16.4888V7.51123C3.75 5.42471 5.4275 3.75 7.5175 3.75H16.51C18.5725 3.75 20.25 5.42471 20.25 7.51123V16.4888C20.25 18.5478 18.5725 20.25 16.51 20.25ZM7.5175 5.39725C6.335 5.39725 5.4 6.3307 5.4 7.51123V16.4888C5.4 17.6418 6.335 18.6027 7.5175 18.6027H16.51C17.665 18.6027 18.6275 17.6693 18.6275 16.4888V7.51123C18.6 6.3307 17.665 5.39725 16.51 5.39725H7.5175Z" fill="white"/>
</g>
</g>
<defs>
<clipPath id="clip0_10009_16783">
<rect width="18" height="18" fill="white" transform="translate(3 3)"/>
</clipPath>
<clipPath id="clip1_10009_16783">
<rect width="16.5" height="16.5" fill="white" transform="translate(3.75 3.75)"/>
</clipPath>
</defs>
</svg>
