<svg width="24" height="24" viewBox="0 0 24 24" fill="none" xmlns="http://www.w3.org/2000/svg">
<rect width="24" height="24" rx="12" fill="#1F727C"/>
<path d="M8.68607 17H6.19821V8.98821H8.68607V17ZM7.4408 7.89533C6.64527 7.89533 6 7.23639 6 6.44084C6 5.64508 6.64507 5 7.4408 5C8.23654 5 8.88161 5.64508 8.88161 6.44084C8.88161 7.23639 8.23607 7.89533 7.4408 7.89533ZM17.9973 17H15.5148V13.0999C15.5148 12.1704 15.4961 10.9784 14.2213 10.9784C12.9279 10.9784 12.7296 11.9883 12.7296 13.0329V17H10.2445V8.98821H12.6305V10.0811H12.6654C12.9975 9.45162 13.8088 8.78732 15.0193 8.78732C17.5371 8.78732 18 10.4454 18 12.599V17H17.9973Z" fill="white"/>
</svg>
