<svg width="1194" height="493" viewBox="0 0 1194 493" fill="none" xmlns="http://www.w3.org/2000/svg">
<path d="M78.3266 2.11207C61.789 35.4738 -14.8563 193.403 27.1918 215.046C37.1871 219.02 48.0683 216.636 58.8132 213.774C66.4459 211.594 73.7833 208.528 82.0748 205.462C98.2262 199.398 114.696 194.243 131.438 190.178C168.806 180.662 207.833 176.347 246.338 175.666C284.842 175.189 323.573 178.732 361.396 185.659C471.049 205.735 575.363 254.108 661.753 324.579C678.382 338.001 693.988 352.763 709.799 367.138C795.644 448.624 910.998 475.422 1026.17 455.391C1041.98 452.961 1058.91 448.896 1074.4 444.945C1150.43 423.96 1223.87 389.826 1285.96 340.476L1288.95 343.565C1266.01 369.091 1238.57 390.212 1209.97 409.062C1119.49 467.405 1009 503.379 900.594 490.366C887.623 488.867 874.039 486.255 861.431 483.393C853.458 481.032 843.485 478.806 835.898 476.081C831.264 474.468 821.495 470.971 817.134 469.426C767.839 449.691 723.974 419.077 686.81 381.628C571.342 263.487 427.524 187.044 259.24 191.2C234.639 191.654 208.878 193.925 184.594 197.809C151.701 202.828 119.262 210.731 87.9584 221.791C80.3256 224.448 71.966 227.764 63.2656 230.08C45.2969 235.236 19.8317 236.916 7.65569 218.929C-18.8771 179.277 29.9633 82.9388 49.5676 44.4672C57.4502 29.3874 65.6281 14.5574 74.5102 0.0227051L78.2812 2.13478L78.3266 2.11207Z" fill="white"/>
</svg>
