<svg width="24" height="24" viewBox="0 0 24 24" fill="none" xmlns="http://www.w3.org/2000/svg">
<rect width="24" height="24" rx="12" fill="#1F727C"/>
<path d="M4.63099 8.75416C4.69984 7.69411 5.55211 6.86334 6.61311 6.81077C8.14949 6.73466 10.3454 6.64286 12 6.64286C13.6546 6.64286 15.8505 6.73466 17.3869 6.81077C18.4479 6.86334 19.3002 7.69411 19.369 8.75416C19.435 9.76978 19.5 11.0195 19.5 12C19.5 12.9805 19.435 14.2302 19.369 15.2458C19.3002 16.3059 18.4479 17.1367 17.3869 17.1892C15.8505 17.2653 13.6546 17.3571 12 17.3571C10.3454 17.3571 8.14949 17.2653 6.61311 17.1892C5.55212 17.1367 4.69984 16.3059 4.63099 15.2458C4.56502 14.2302 4.5 12.9805 4.5 12C4.5 11.0195 4.56502 9.76978 4.63099 8.75416Z" fill="white"/>
<path d="M10.3926 9.85714V14.1429L14.6783 12L10.3926 9.85714Z" fill="#1F727C"/>
</svg>
